# xmcd
# 
# Track frame offsets:
#     150
#     33290
#     54276
#     78865
#     110739
#     153560
#     191115
#     213912
#     237163
#     259270
# 
# Disc length: 3836
# 
# Revision: 4
# Processed by: cddbd v1.5.2PL0 Copyright (c) Steve Scherf et al.
# Submitted via: fre:ac v1.0.31
# 
DISCID=810efa0a
DTITLE=John Mayall - Turning Point (2001 reissue)
DYEAR=1969
DGENRE=Blues
TTITLE0=The Laws Must Change
TTITLE1=Saw Mill Gulch Road
TTITLE2=I'm Gonna Fight For You J.B.
TTITLE3=So Hard To Share
TTITLE4=California
TTITLE5=Thoughts About Roxanne
TTITLE6=Room To Move
TTITLE7=Sleeping By Her Side (bonus track)
TTITLE8=Don't Waste My Time (bonus track)
TTITLE9=Can't Sleep This Night (bonus track)
EXTD=
EXTT0=
EXTT1=
EXTT2=
EXTT3=
EXTT4=
EXTT5=
EXTT6=
EXTT7=
EXTT8=
EXTT9=
PLAYORDER=
